<?xml version="1.0" encoding="UTF-8"?>
<svg id="Layer_1" data-name="Layer 1" xmlns="http://www.w3.org/2000/svg" xmlns:xlink="http://www.w3.org/1999/xlink" viewBox="0 0 4096 1664.51">
  <defs>
    <style>
      .cls-1 {
        fill: url(#linear-gradient-2);
      }

      .cls-2 {
        fill: #fff;
      }

      .cls-3 {
        fill: #ef3a38;
      }

      .cls-4 {
        fill: url(#linear-gradient);
      }
    </style>
    <linearGradient id="linear-gradient" x1="-1439.47" y1="2103.97" x2="175.09" y2="714.86" gradientTransform="translate(769.37 1242.39) scale(.56 -.57)" gradientUnits="userSpaceOnUse">
      <stop offset="0" stop-color="#f48586"/>
      <stop offset="1" stop-color="#ef3a38"/>
    </linearGradient>
    <linearGradient id="linear-gradient-2" x1="425.06" y1="1044.47" x2="1646.33" y2="1044.47" gradientUnits="userSpaceOnUse">
      <stop offset="0" stop-color="#fff"/>
      <stop offset="1" stop-color="#c1c0c0"/>
    </linearGradient>
  </defs>
  <g>
    <path id="path1948" class="cls-4" d="m813.36.01c-67.89.32-132.71,6.11-189.76,16.2-168.04,29.69-198.55,91.83-198.55,206.42v151.34h397.1v50.45H276.03c-115.41,0-216.46,69.37-248.07,201.33-36.46,151.26-38.08,245.64,0,403.58,28.23,117.56,95.64,201.33,211.05,201.33h136.53v-181.43c0-131.07,113.4-246.68,248.07-246.68h396.64c110.41,0,198.55-90.91,198.55-201.79V222.63c0-107.62-90.79-188.46-198.55-206.42C952.03,4.86,881.25-.3,813.36.01Zm-214.75,121.72c41.02,0,74.51,34.04,74.51,75.9,0,41.71-33.5,75.44-74.51,75.44-41.16,0-74.51-33.73-74.51-75.44s33.35-75.9,74.51-75.9Z"/>
    <path id="path1950" class="cls-1" d="m1268.32,424.42v176.34c0,136.71-115.9,251.77-248.07,251.77h-396.64c-108.65,0-198.55,92.99-198.55,201.79v378.13c0,107.62,93.58,170.92,198.55,201.79,125.7,36.96,246.24,43.64,396.64,0,99.97-28.95,198.55-87.2,198.55-201.79v-151.34h-396.64v-50.45h595.19c115.41,0,158.41-80.5,198.55-201.33,41.46-124.39,39.69-244.01,0-403.58-28.52-114.89-82.99-201.33-198.55-201.33h-149.03Zm-223.08,957.58c41.16,0,74.51,33.73,74.51,75.44s-33.35,75.9-74.51,75.9-74.51-34.04-74.51-75.9,33.5-75.44,74.51-75.44Z"/>
  </g>
  <g>
    <path class="cls-2" d="m2286.78,1186.99v-470.61h107.34v44.79h1.42c22.75-36.97,58.53-55.45,107.34-55.45,45.02,0,82.22,15.28,111.61,45.85,29.38,30.57,44.08,73.58,44.08,129.03s-14.7,98.46-44.08,129.03c-29.39,30.57-66.59,45.85-111.61,45.85-48.82,0-84.6-18.48-107.34-55.45h-1.42v186.96h-107.34Zm186.25-229.62c21.79,0,39.81-6.99,54.03-20.97,14.22-13.97,21.33-32.58,21.33-55.81s-7.11-41.82-21.33-55.8c-14.22-13.97-32.23-20.97-54.03-20.97s-40.52,7-54.74,20.97c-14.22,13.98-21.33,32.59-21.33,55.8s7.11,41.83,21.33,55.81c14.22,13.98,32.46,20.97,54.74,20.97Z"/>
    <path class="cls-2" d="m2935.12,716.38h108.77l-218.24,470.61h-108.06l82.46-173.46-147.16-297.15h123.7l76.78,181.28,81.75-181.28Z"/>
    <path class="cls-3" d="m3296.97,706.42v107.35h-9.24c-36.5,0-62.45,8.06-77.84,24.17-15.41,16.12-23.1,44.79-23.1,86.02v120.85h-107.34v-328.43h105.21v66.82h1.42c18.01-51.18,54.26-76.78,108.77-76.78h2.13Z"/>
    <path class="cls-3" d="m3552.89,1055.47c-48.34,0-83.88-18.48-106.63-55.45h-1.42v44.79h-107.34v-497.63h107.34v213.98h1.42c22.75-36.97,58.29-55.45,106.63-55.45,45.02,0,82.34,15.28,111.97,45.85,29.61,30.57,44.43,73.58,44.43,129.03s-14.82,98.46-44.43,129.03c-29.62,30.57-66.95,45.85-111.97,45.85Zm-29.86-98.1c22.27,0,40.52-6.99,54.74-20.97,14.22-13.97,21.33-32.58,21.33-55.81s-7.11-41.82-21.33-55.8c-14.22-13.97-32.47-20.97-54.74-20.97s-39.81,7-54.03,20.97c-14.22,13.98-21.33,32.59-21.33,55.8s7.11,41.83,21.33,55.81c14.22,13.98,32.22,20.97,54.03,20.97Z"/>
    <path class="cls-3" d="m3968.76,1044.81l-72.51-102.37-73.22,102.37h-123.7l131.52-172.04-119.43-156.4h124.41l60.43,86.73,59.72-86.73h124.41l-119.43,156.4,131.52,172.04h-123.7Z"/>
  </g>
</svg>