<?xml version="1.0" encoding="utf-8"?>
<!-- Generator: Adobe Illustrator 27.4.0, SVG Export Plug-In . SVG Version: 6.00 Build 0)  -->
<svg version="1.1" id="Layer_1" xmlns="http://www.w3.org/2000/svg" xmlns:xlink="http://www.w3.org/1999/xlink" x="0px" y="0px"
	 viewBox="0 0 512 512" style="enable-background:new 0 0 512 512;" xml:space="preserve">
<style type="text/css">
	.st0{fill:url(#path1948_00000112633227384945508160000014536334639351778220_);}
	.st1{fill:url(#path1950_00000024719232214205244750000005460331472870738620_);}
	.st2{fill:#FFFFFF;}
	.st3{font-family:'MyriadPro-Regular';}
	.st4{font-size:48px;}
	.st5{fill:#EF3A38;}
</style>
<g>
	
		<linearGradient id="path1948_00000078745961059524407690000000252887393853497985_" gradientUnits="userSpaceOnUse" x1="119.272" y1="136.7348" x2="228.2883" y2="42.9409" gradientTransform="matrix(0.5625 0 0 -0.568 -14.5537 280.6673)">
		<stop  offset="0" style="stop-color:#F48586"/>
		<stop  offset="1" style="stop-color:#EF3A38"/>
	</linearGradient>
	<path id="path1948" style="fill:url(#path1948_00000078745961059524407690000000252887393853497985_);" d="M110.19,199.81
		c-4.58,0.02-8.96,0.41-12.81,1.09c-11.35,2-13.41,6.2-13.41,13.94v10.22h26.81v3.41H83.97H73.91c-7.79,0-14.62,4.68-16.75,13.59
		c-2.46,10.21-2.57,16.59,0,27.25c1.91,7.94,6.46,13.59,14.25,13.59h9.22v-12.25c0-8.85,7.66-16.66,16.75-16.66h26.78
		c7.45,0,13.41-6.14,13.41-13.62v-25.53c0-7.27-6.13-12.72-13.41-13.94C119.55,200.13,114.77,199.79,110.19,199.81z M95.69,208.03
		c2.77,0,5.03,2.3,5.03,5.12c0,2.82-2.26,5.09-5.03,5.09c-2.78,0-5.03-2.28-5.03-5.09C90.66,210.32,92.91,208.03,95.69,208.03z"/>
	
		<linearGradient id="path1950_00000006678501968076555900000012926614382529292939_" gradientUnits="userSpaceOnUse" x1="83.9688" y1="270.3286" x2="166.4301" y2="270.3286">
		<stop  offset="0" style="stop-color:#FFFFFF"/>
		<stop  offset="1" style="stop-color:#C1C0C0"/>
	</linearGradient>
	<path id="path1950" style="fill:url(#path1950_00000006678501968076555900000012926614382529292939_);" d="M140.91,228.46v11.91
		c0,9.23-7.83,17-16.75,17H97.38c-7.34,0-13.41,6.28-13.41,13.62v25.53c0,7.27,6.32,11.54,13.41,13.62c8.49,2.5,16.63,2.95,26.78,0
		c6.75-1.95,13.41-5.89,13.41-13.62v-10.22h-26.78v-3.41h26.78h13.41c7.79,0,10.7-5.44,13.41-13.59c2.8-8.4,2.68-16.48,0-27.25
		c-1.93-7.76-5.6-13.59-13.41-13.59L140.91,228.46z M125.84,293.12c2.78,0,5.03,2.28,5.03,5.09c0,2.83-2.25,5.12-5.03,5.12
		c-2.77,0-5.03-2.3-5.03-5.12C120.81,295.4,123.07,293.12,125.84,293.12z"/>
</g>
<text transform="matrix(1 0 0 1 207.4654 270.0882)"><tspan x="0" y="0" class="st2 st3 st4">py</tspan><tspan x="49.92" y="0" class="st5 st3 st4">rbx</tspan></text>
</svg>
