<?xml version="1.0" encoding="UTF-8"?>
<svg id="Layer_1" data-name="Layer 1" xmlns="http://www.w3.org/2000/svg" xmlns:xlink="http://www.w3.org/1999/xlink" viewBox="0 0 1709.44 694.67">
  <defs>
    <style>
      .cls-1 {
        fill: url(#linear-gradient-2);
      }

      .cls-2 {
        fill: #fff;
      }

      .cls-3 {
        fill: #ef3a38;
      }

      .cls-4 {
        fill: url(#linear-gradient);
      }
    </style>
    <linearGradient id="linear-gradient" x1="-478" y1="872.69" x2="195.82" y2="292.96" gradientTransform="translate(252.04 515.45) scale(.56 -.57)" gradientUnits="userSpaceOnUse">
      <stop offset="0" stop-color="#f48586"/>
      <stop offset="1" stop-color="#ef3a38"/>
    </linearGradient>
    <linearGradient id="linear-gradient-2" x1="177.39" y1="435.9" x2="687.08" y2="435.9" gradientUnits="userSpaceOnUse">
      <stop offset="0" stop-color="#fff"/>
      <stop offset="1" stop-color="#c1c0c0"/>
    </linearGradient>
  </defs>
  <g>
    <path id="path1948" class="cls-4" d="m339.45,0c-28.33.13-55.39,2.55-79.19,6.76-70.13,12.39-82.86,38.32-82.86,86.15v63.16h165.73v21.05H115.2c-48.16,0-90.34,28.95-103.53,84.02-15.22,63.13-15.89,102.52,0,168.43,11.78,49.06,39.91,84.02,88.08,84.02h56.98v-75.72c0-54.7,47.33-102.95,103.53-102.95h165.53c46.08,0,82.86-37.94,82.86-84.22V92.91c0-44.91-37.89-78.65-82.86-86.15C397.32,2.03,367.78-.13,339.45,0Zm-89.62,50.8c17.12,0,31.1,14.21,31.1,31.68,0,17.41-13.98,31.48-31.1,31.48-17.18,0-31.1-14.08-31.1-31.48s13.92-31.68,31.1-31.68Z"/>
    <path id="path1950" class="cls-1" d="m529.32,177.13v73.59c0,57.06-48.37,105.08-103.53,105.08h-165.53c-45.34,0-82.86,38.81-82.86,84.22v157.81c0,44.91,39.05,71.33,82.86,84.22,52.46,15.43,102.77,18.21,165.53,0,41.72-12.08,82.86-36.39,82.86-84.22v-63.16h-165.53v-21.05h248.4c48.16,0,66.11-33.6,82.86-84.02,17.3-51.91,16.57-101.84,0-168.43-11.9-47.95-34.64-84.02-82.86-84.02h-62.2Zm-93.1,399.64c17.18,0,31.1,14.08,31.1,31.48s-13.92,31.68-31.1,31.68-31.1-14.21-31.1-31.68,13.98-31.48,31.1-31.48Z"/>
  </g>
  <g>
    <path class="cls-2" d="m954.37,495.38v-196.41h44.8v18.69h.59c9.49-15.43,24.43-23.14,44.8-23.14,18.79,0,34.31,6.38,46.58,19.14,12.26,12.76,18.39,30.71,18.39,53.85s-6.13,41.09-18.39,53.85c-12.27,12.76-27.79,19.14-46.58,19.14-20.37,0-35.31-7.71-44.8-23.14h-.59v78.03h-44.8Zm77.73-95.83c9.1,0,16.61-2.92,22.55-8.75,5.93-5.83,8.9-13.6,8.9-23.29s-2.97-17.45-8.9-23.29c-5.93-5.83-13.45-8.75-22.55-8.75s-16.91,2.92-22.84,8.75c-5.93,5.84-8.9,13.6-8.9,23.29s2.97,17.46,8.9,23.29c5.93,5.84,13.55,8.75,22.84,8.75Z"/>
    <path class="cls-2" d="m1224.95,298.98h45.39l-91.08,196.41h-45.1l34.42-72.39-61.41-124.01h51.62l32.04,75.66,34.12-75.66Z"/>
    <path class="cls-3" d="m1375.97,294.82v44.8h-3.86c-15.23,0-26.06,3.37-32.49,10.09-6.43,6.73-9.64,18.69-9.64,35.9v50.44h-44.8v-137.07h43.91v27.89h.59c7.51-21.36,22.65-32.04,45.39-32.04h.89Z"/>
    <path class="cls-3" d="m1482.77,440.49c-20.17,0-35.01-7.71-44.5-23.14h-.59v18.69h-44.8v-207.68h44.8v89.3h.59c9.49-15.43,24.33-23.14,44.5-23.14,18.79,0,34.37,6.38,46.73,19.14,12.36,12.76,18.54,30.71,18.54,53.85s-6.18,41.09-18.54,53.85c-12.36,12.76-27.94,19.14-46.73,19.14Zm-12.46-40.94c9.29,0,16.91-2.92,22.84-8.75,5.93-5.83,8.9-13.6,8.9-23.29s-2.97-17.45-8.9-23.29c-5.93-5.83-13.55-8.75-22.84-8.75s-16.62,2.92-22.55,8.75c-5.93,5.84-8.9,13.6-8.9,23.29s2.97,17.46,8.9,23.29c5.93,5.84,13.45,8.75,22.55,8.75Z"/>
    <path class="cls-3" d="m1656.33,436.04l-30.26-42.72-30.56,42.72h-51.62l54.89-71.8-49.84-65.27h51.92l25.22,36.2,24.92-36.2h51.92l-49.84,65.27,54.89,71.8h-51.62Z"/>
  </g>
</svg>